<mxfile host="app.diagrams.net" modified="2023-08-04T13:30:20.751Z" agent="Mozilla/5.0 (Windows NT 10.0; Win64; x64) AppleWebKit/537.36 (KHTML, like Gecko) Chrome/115.0.0.0 Safari/537.36 Edg/115.0.1901.188" etag="DOZ1fotAT1_fVfDV4HMp" version="21.6.6" type="github">
  <diagram name="Page-1" id="VI10CX9BWN11-0DWWw2d">
    <mxGraphModel dx="1139" dy="734" grid="1" gridSize="10" guides="1" tooltips="1" connect="1" arrows="1" fold="1" page="1" pageScale="1" pageWidth="827" pageHeight="1169" math="0" shadow="0">
      <root>
        <mxCell id="0" />
        <mxCell id="1" parent="0" />
        <mxCell id="GJPaSj8YlV67Fz2Qaf1J-4" value="" style="rounded=0;whiteSpace=wrap;html=1;" vertex="1" parent="1">
          <mxGeometry x="120" y="40" width="600" height="80" as="geometry" />
        </mxCell>
        <mxCell id="GJPaSj8YlV67Fz2Qaf1J-5" value="" style="rounded=0;whiteSpace=wrap;html=1;" vertex="1" parent="1">
          <mxGeometry x="41" y="160" width="240" height="40" as="geometry" />
        </mxCell>
        <mxCell id="GJPaSj8YlV67Fz2Qaf1J-6" value="" style="rounded=0;whiteSpace=wrap;html=1;" vertex="1" parent="1">
          <mxGeometry x="522" y="160" width="238" height="40" as="geometry" />
        </mxCell>
        <mxCell id="GJPaSj8YlV67Fz2Qaf1J-7" value="" style="rounded=0;whiteSpace=wrap;html=1;" vertex="1" parent="1">
          <mxGeometry x="280" y="160" width="242" height="40" as="geometry" />
        </mxCell>
      </root>
    </mxGraphModel>
  </diagram>
</mxfile>
